<svg width="320" height="320" viewBox="0 0 320 320" fill="none" xmlns="http://www.w3.org/2000/svg">
<circle cx="66.5" cy="142.5" r="40.5" fill="#F3F4F8"/>
<path d="M88.1562 155.188C88.1562 154.312 88.0208 153.531 87.75 152.844C87.5 152.135 87.0312 151.5 86.3438 150.938C85.6771 150.354 84.7292 149.792 83.5 149.25C82.2917 148.688 80.7292 148.104 78.8125 147.5C76.6875 146.833 74.7083 146.083 72.875 145.25C71.0417 144.417 69.4271 143.448 68.0312 142.344C66.6562 141.24 65.5833 139.969 64.8125 138.531C64.0417 137.073 63.6562 135.385 63.6562 133.469C63.6562 131.594 64.0521 129.885 64.8438 128.344C65.6562 126.802 66.8021 125.479 68.2812 124.375C69.7604 123.25 71.5 122.385 73.5 121.781C75.5208 121.177 77.75 120.875 80.1875 120.875C83.5625 120.875 86.4792 121.49 88.9375 122.719C91.4167 123.948 93.3333 125.615 94.6875 127.719C96.0417 129.823 96.7188 132.188 96.7188 134.812H88.1562C88.1562 133.396 87.8542 132.146 87.25 131.062C86.6667 129.979 85.7708 129.125 84.5625 128.5C83.375 127.875 81.875 127.562 80.0625 127.562C78.3125 127.562 76.8542 127.823 75.6875 128.344C74.5417 128.865 73.6771 129.573 73.0938 130.469C72.5312 131.365 72.25 132.365 72.25 133.469C72.25 134.302 72.4479 135.052 72.8438 135.719C73.2396 136.365 73.8333 136.979 74.625 137.562C75.4167 138.125 76.3958 138.656 77.5625 139.156C78.75 139.635 80.125 140.115 81.6875 140.594C84.1875 141.344 86.375 142.177 88.25 143.094C90.1458 144.01 91.7188 145.052 92.9688 146.219C94.2396 147.385 95.1875 148.698 95.8125 150.156C96.4583 151.615 96.7812 153.271 96.7812 155.125C96.7812 157.083 96.3958 158.833 95.625 160.375C94.8542 161.917 93.75 163.229 92.3125 164.312C90.875 165.396 89.1458 166.219 87.125 166.781C85.125 167.344 82.8854 167.625 80.4062 167.625C78.1979 167.625 76.0104 167.333 73.8438 166.75C71.6979 166.146 69.75 165.25 68 164.062C66.25 162.854 64.8542 161.333 63.8125 159.5C62.7708 157.646 62.25 155.479 62.25 153H70.875C70.875 154.438 71.1042 155.667 71.5625 156.688C72.0417 157.688 72.7083 158.51 73.5625 159.156C74.4375 159.781 75.4583 160.24 76.625 160.531C77.7917 160.823 79.0521 160.969 80.4062 160.969C82.1562 160.969 83.5938 160.729 84.7188 160.25C85.8646 159.75 86.7188 159.062 87.2812 158.188C87.8646 157.312 88.1562 156.312 88.1562 155.188ZM117.969 167.625C115.406 167.625 113.104 167.208 111.062 166.375C109.021 165.542 107.281 164.385 105.844 162.906C104.427 161.406 103.333 159.667 102.562 157.688C101.812 155.688 101.438 153.542 101.438 151.25V150C101.438 147.396 101.812 145.031 102.562 142.906C103.312 140.76 104.375 138.917 105.75 137.375C107.125 135.833 108.771 134.646 110.688 133.812C112.604 132.979 114.719 132.562 117.031 132.562C119.427 132.562 121.542 132.969 123.375 133.781C125.208 134.573 126.74 135.698 127.969 137.156C129.198 138.615 130.125 140.365 130.75 142.406C131.375 144.427 131.688 146.667 131.688 149.125V152.594H105.188V146.906H123.562V146.281C123.521 144.969 123.271 143.771 122.812 142.688C122.354 141.583 121.646 140.708 120.688 140.062C119.729 139.396 118.49 139.062 116.969 139.062C115.74 139.062 114.667 139.333 113.75 139.875C112.854 140.396 112.104 141.146 111.5 142.125C110.917 143.083 110.479 144.229 110.188 145.562C109.896 146.896 109.75 148.375 109.75 150V151.25C109.75 152.667 109.938 153.979 110.312 155.188C110.708 156.396 111.281 157.448 112.031 158.344C112.802 159.219 113.719 159.906 114.781 160.406C115.865 160.885 117.094 161.125 118.469 161.125C120.198 161.125 121.76 160.792 123.156 160.125C124.573 159.438 125.802 158.427 126.844 157.094L131 161.406C130.292 162.448 129.333 163.448 128.125 164.406C126.938 165.365 125.5 166.146 123.812 166.75C122.125 167.333 120.177 167.625 117.969 167.625ZM145.438 140.125V167H137.188V133.188H144.969L145.438 140.125ZM144.219 148.875H141.688C141.688 146.521 141.969 144.354 142.531 142.375C143.115 140.396 143.969 138.677 145.094 137.219C146.219 135.74 147.604 134.594 149.25 133.781C150.917 132.969 152.844 132.562 155.031 132.562C156.552 132.562 157.948 132.792 159.219 133.25C160.49 133.688 161.583 134.385 162.5 135.344C163.438 136.281 164.156 137.51 164.656 139.031C165.156 140.531 165.406 142.333 165.406 144.438V167H157.156V145.281C157.156 143.698 156.927 142.458 156.469 141.562C156.031 140.667 155.396 140.042 154.562 139.688C153.729 139.312 152.729 139.125 151.562 139.125C150.271 139.125 149.156 139.385 148.219 139.906C147.302 140.406 146.542 141.104 145.938 142C145.354 142.896 144.917 143.927 144.625 145.094C144.354 146.26 144.219 147.521 144.219 148.875ZM164.781 147.344L161.375 147.969C161.396 145.844 161.688 143.854 162.25 142C162.812 140.125 163.635 138.49 164.719 137.094C165.823 135.677 167.188 134.573 168.812 133.781C170.458 132.969 172.354 132.562 174.5 132.562C176.167 132.562 177.667 132.802 179 133.281C180.354 133.74 181.51 134.479 182.469 135.5C183.427 136.5 184.156 137.802 184.656 139.406C185.177 141.01 185.438 142.969 185.438 145.281V167H177.125V145.25C177.125 143.604 176.896 142.344 176.438 141.469C176 140.594 175.365 139.99 174.531 139.656C173.698 139.302 172.719 139.125 171.594 139.125C170.448 139.125 169.448 139.344 168.594 139.781C167.76 140.198 167.052 140.781 166.469 141.531C165.906 142.281 165.479 143.156 165.188 144.156C164.917 145.135 164.781 146.198 164.781 147.344ZM192.812 119H201.094V159.531L200.281 167H192.812V119ZM222.844 149.75V150.406C222.844 152.927 222.562 155.24 222 157.344C221.458 159.448 220.635 161.271 219.531 162.812C218.427 164.333 217.052 165.521 215.406 166.375C213.781 167.208 211.875 167.625 209.688 167.625C207.604 167.625 205.792 167.219 204.25 166.406C202.729 165.594 201.448 164.448 200.406 162.969C199.365 161.469 198.531 159.708 197.906 157.688C197.281 155.646 196.812 153.417 196.5 151V149.219C196.812 146.781 197.281 144.552 197.906 142.531C198.531 140.51 199.365 138.75 200.406 137.25C201.448 135.75 202.729 134.594 204.25 133.781C205.771 132.969 207.562 132.562 209.625 132.562C211.833 132.562 213.76 132.99 215.406 133.844C217.073 134.677 218.448 135.865 219.531 137.406C220.635 138.927 221.458 140.74 222 142.844C222.562 144.927 222.844 147.229 222.844 149.75ZM214.562 150.406V149.75C214.562 148.312 214.448 146.958 214.219 145.688C213.99 144.396 213.615 143.26 213.094 142.281C212.573 141.302 211.865 140.531 210.969 139.969C210.073 139.406 208.948 139.125 207.594 139.125C206.302 139.125 205.198 139.344 204.281 139.781C203.385 140.219 202.635 140.823 202.031 141.594C201.448 142.365 200.99 143.271 200.656 144.312C200.344 145.354 200.135 146.479 200.031 147.688V152.562C200.177 154.167 200.521 155.615 201.062 156.906C201.604 158.177 202.406 159.188 203.469 159.938C204.552 160.688 205.948 161.062 207.656 161.062C208.99 161.062 210.104 160.802 211 160.281C211.896 159.74 212.604 158.99 213.125 158.031C213.646 157.052 214.01 155.917 214.219 154.625C214.448 153.333 214.562 151.927 214.562 150.406ZM244.031 167.625C241.469 167.625 239.167 167.208 237.125 166.375C235.083 165.542 233.344 164.385 231.906 162.906C230.49 161.406 229.396 159.667 228.625 157.688C227.875 155.688 227.5 153.542 227.5 151.25V150C227.5 147.396 227.875 145.031 228.625 142.906C229.375 140.76 230.438 138.917 231.812 137.375C233.188 135.833 234.833 134.646 236.75 133.812C238.667 132.979 240.781 132.562 243.094 132.562C245.49 132.562 247.604 132.969 249.438 133.781C251.271 134.573 252.802 135.698 254.031 137.156C255.26 138.615 256.188 140.365 256.812 142.406C257.438 144.427 257.75 146.667 257.75 149.125V152.594H231.25V146.906H249.625V146.281C249.583 144.969 249.333 143.771 248.875 142.688C248.417 141.583 247.708 140.708 246.75 140.062C245.792 139.396 244.552 139.062 243.031 139.062C241.802 139.062 240.729 139.333 239.812 139.875C238.917 140.396 238.167 141.146 237.562 142.125C236.979 143.083 236.542 144.229 236.25 145.562C235.958 146.896 235.812 148.375 235.812 150V151.25C235.812 152.667 236 153.979 236.375 155.188C236.771 156.396 237.344 157.448 238.094 158.344C238.865 159.219 239.781 159.906 240.844 160.406C241.927 160.885 243.156 161.125 244.531 161.125C246.26 161.125 247.823 160.792 249.219 160.125C250.635 159.438 251.865 158.427 252.906 157.094L257.062 161.406C256.354 162.448 255.396 163.448 254.188 164.406C253 165.365 251.562 166.146 249.875 166.75C248.188 167.333 246.24 167.625 244.031 167.625Z" fill="#6F7BF7"/>
<path d="M65.9297 202.273L69.0342 191.359H70.5381L69.668 195.603L66.3271 207H64.834L65.9297 202.273ZM62.7178 191.359L65.1885 202.059L65.9297 207H64.4473L60.6553 191.359H62.7178ZM74.5557 202.048L76.9727 191.359H79.0459L75.2646 207H73.7822L74.5557 202.048ZM70.7637 191.359L73.7822 202.273L74.8779 207H73.3848L70.1621 195.603L69.2812 191.359H70.7637ZM80.1738 201.317V201.07C80.1738 200.232 80.2956 199.455 80.5391 198.739C80.7826 198.016 81.1335 197.389 81.5918 196.859C82.0501 196.322 82.6051 195.907 83.2568 195.613C83.9085 195.312 84.639 195.162 85.4482 195.162C86.2646 195.162 86.9987 195.312 87.6504 195.613C88.3092 195.907 88.8678 196.322 89.3262 196.859C89.7917 197.389 90.1462 198.016 90.3896 198.739C90.6331 199.455 90.7549 200.232 90.7549 201.07V201.317C90.7549 202.155 90.6331 202.932 90.3896 203.648C90.1462 204.365 89.7917 204.991 89.3262 205.528C88.8678 206.058 88.3128 206.474 87.6611 206.774C87.0166 207.068 86.2861 207.215 85.4697 207.215C84.6533 207.215 83.9193 207.068 83.2676 206.774C82.6159 206.474 82.0573 206.058 81.5918 205.528C81.1335 204.991 80.7826 204.365 80.5391 203.648C80.2956 202.932 80.1738 202.155 80.1738 201.317ZM82.1611 201.07V201.317C82.1611 201.897 82.2292 202.445 82.3652 202.961C82.5013 203.469 82.7054 203.921 82.9775 204.314C83.2568 204.708 83.6042 205.02 84.0195 205.249C84.4349 205.471 84.9183 205.582 85.4697 205.582C86.014 205.582 86.4902 205.471 86.8984 205.249C87.3138 205.02 87.6576 204.708 87.9297 204.314C88.2018 203.921 88.4059 203.469 88.542 202.961C88.6852 202.445 88.7568 201.897 88.7568 201.317V201.07C88.7568 200.497 88.6852 199.957 88.542 199.448C88.4059 198.933 88.1982 198.478 87.9189 198.084C87.6468 197.683 87.3031 197.368 86.8877 197.139C86.4795 196.91 85.9997 196.795 85.4482 196.795C84.904 196.795 84.4242 196.91 84.0088 197.139C83.6006 197.368 83.2568 197.683 82.9775 198.084C82.7054 198.478 82.5013 198.933 82.3652 199.448C82.2292 199.957 82.1611 200.497 82.1611 201.07ZM95.2344 197.203V207H93.2471V195.377H95.1807L95.2344 197.203ZM98.8652 195.312L98.8545 197.16C98.6898 197.124 98.5322 197.103 98.3818 197.096C98.2386 197.081 98.0739 197.074 97.8877 197.074C97.4294 197.074 97.0247 197.146 96.6738 197.289C96.3229 197.432 96.0257 197.633 95.7822 197.891C95.5387 198.148 95.3454 198.456 95.2021 198.814C95.0661 199.165 94.9766 199.552 94.9336 199.975L94.375 200.297C94.375 199.595 94.443 198.936 94.5791 198.32C94.7223 197.704 94.9408 197.16 95.2344 196.688C95.528 196.208 95.9004 195.835 96.3516 195.57C96.8099 195.298 97.3542 195.162 97.9844 195.162C98.1276 195.162 98.2923 195.18 98.4785 195.216C98.6647 195.244 98.7936 195.277 98.8652 195.312ZM102.7 190.5V207H100.702V190.5H102.7ZM109.801 195.377L104.73 200.802L101.895 203.745L101.733 201.629L103.764 199.201L107.373 195.377H109.801ZM107.985 207L103.839 201.457L104.87 199.685L110.327 207H107.985ZM111.326 201.317V201.07C111.326 200.232 111.448 199.455 111.691 198.739C111.935 198.016 112.286 197.389 112.744 196.859C113.202 196.322 113.757 195.907 114.409 195.613C115.061 195.312 115.791 195.162 116.601 195.162C117.417 195.162 118.151 195.312 118.803 195.613C119.462 195.907 120.02 196.322 120.479 196.859C120.944 197.389 121.299 198.016 121.542 198.739C121.785 199.455 121.907 200.232 121.907 201.07V201.317C121.907 202.155 121.785 202.932 121.542 203.648C121.299 204.365 120.944 204.991 120.479 205.528C120.02 206.058 119.465 206.474 118.813 206.774C118.169 207.068 117.438 207.215 116.622 207.215C115.806 207.215 115.072 207.068 114.42 206.774C113.768 206.474 113.21 206.058 112.744 205.528C112.286 204.991 111.935 204.365 111.691 203.648C111.448 202.932 111.326 202.155 111.326 201.317ZM113.313 201.07V201.317C113.313 201.897 113.382 202.445 113.518 202.961C113.654 203.469 113.858 203.921 114.13 204.314C114.409 204.708 114.757 205.02 115.172 205.249C115.587 205.471 116.071 205.582 116.622 205.582C117.166 205.582 117.643 205.471 118.051 205.249C118.466 205.02 118.81 204.708 119.082 204.314C119.354 203.921 119.558 203.469 119.694 202.961C119.838 202.445 119.909 201.897 119.909 201.317V201.07C119.909 200.497 119.838 199.957 119.694 199.448C119.558 198.933 119.351 198.478 119.071 198.084C118.799 197.683 118.455 197.368 118.04 197.139C117.632 196.91 117.152 196.795 116.601 196.795C116.056 196.795 115.576 196.91 115.161 197.139C114.753 197.368 114.409 197.683 114.13 198.084C113.858 198.478 113.654 198.933 113.518 199.448C113.382 199.957 113.313 200.497 113.313 201.07ZM131.511 204.314V195.377H133.509V207H131.607L131.511 204.314ZM131.887 201.865L132.714 201.844C132.714 202.617 132.632 203.333 132.467 203.992C132.309 204.644 132.051 205.21 131.693 205.689C131.335 206.169 130.866 206.545 130.286 206.817C129.706 207.082 129.001 207.215 128.17 207.215C127.604 207.215 127.085 207.132 126.612 206.968C126.147 206.803 125.746 206.549 125.409 206.205C125.073 205.861 124.811 205.414 124.625 204.862C124.446 204.311 124.356 203.648 124.356 202.875V195.377H126.344V202.896C126.344 203.419 126.401 203.853 126.516 204.196C126.637 204.533 126.799 204.801 126.999 205.002C127.207 205.195 127.436 205.331 127.687 205.41C127.944 205.489 128.209 205.528 128.481 205.528C129.326 205.528 129.996 205.367 130.49 205.045C130.984 204.715 131.339 204.275 131.554 203.724C131.776 203.165 131.887 202.546 131.887 201.865ZM141.404 195.377V196.902H135.12V195.377H141.404ZM137.247 192.552H139.234V204.121C139.234 204.515 139.295 204.812 139.417 205.013C139.539 205.213 139.696 205.346 139.89 205.41C140.083 205.475 140.291 205.507 140.513 205.507C140.677 205.507 140.849 205.493 141.028 205.464C141.215 205.428 141.354 205.399 141.447 205.378L141.458 207C141.3 207.05 141.093 207.097 140.835 207.14C140.584 207.19 140.28 207.215 139.922 207.215C139.435 207.215 138.987 207.118 138.579 206.925C138.171 206.731 137.845 206.409 137.602 205.958C137.365 205.5 137.247 204.884 137.247 204.11V192.552ZM155.283 192.745L150.105 207H147.989L153.951 191.359H155.315L155.283 192.745ZM159.623 207L154.435 192.745L154.402 191.359H155.767L161.75 207H159.623ZM159.354 201.21V202.907H150.567V201.21H159.354ZM165.531 197.611V211.469H163.533V195.377H165.359L165.531 197.611ZM173.362 201.092V201.317C173.362 202.162 173.262 202.947 173.062 203.67C172.861 204.386 172.567 205.009 172.181 205.539C171.801 206.069 171.332 206.481 170.773 206.774C170.215 207.068 169.574 207.215 168.851 207.215C168.113 207.215 167.461 207.093 166.896 206.85C166.33 206.606 165.85 206.252 165.456 205.786C165.062 205.321 164.747 204.762 164.511 204.11C164.282 203.459 164.124 202.725 164.038 201.908V200.705C164.124 199.846 164.285 199.076 164.521 198.396C164.758 197.715 165.069 197.135 165.456 196.655C165.85 196.168 166.326 195.799 166.885 195.549C167.443 195.291 168.088 195.162 168.818 195.162C169.549 195.162 170.197 195.305 170.763 195.592C171.328 195.871 171.805 196.272 172.191 196.795C172.578 197.318 172.868 197.944 173.062 198.675C173.262 199.398 173.362 200.204 173.362 201.092ZM171.364 201.317V201.092C171.364 200.512 171.303 199.967 171.182 199.459C171.06 198.943 170.87 198.492 170.612 198.105C170.362 197.712 170.039 197.404 169.646 197.182C169.252 196.952 168.783 196.838 168.238 196.838C167.737 196.838 167.3 196.924 166.928 197.096C166.562 197.268 166.251 197.5 165.993 197.794C165.735 198.08 165.524 198.41 165.359 198.782C165.202 199.147 165.084 199.527 165.005 199.921V202.703C165.148 203.204 165.349 203.677 165.606 204.121C165.864 204.558 166.208 204.912 166.638 205.185C167.067 205.45 167.608 205.582 168.26 205.582C168.797 205.582 169.259 205.471 169.646 205.249C170.039 205.02 170.362 204.708 170.612 204.314C170.87 203.921 171.06 203.469 171.182 202.961C171.303 202.445 171.364 201.897 171.364 201.317ZM177.885 197.611V211.469H175.887V195.377H177.713L177.885 197.611ZM185.716 201.092V201.317C185.716 202.162 185.616 202.947 185.415 203.67C185.215 204.386 184.921 205.009 184.534 205.539C184.155 206.069 183.686 206.481 183.127 206.774C182.568 207.068 181.927 207.215 181.204 207.215C180.466 207.215 179.815 207.093 179.249 206.85C178.683 206.606 178.203 206.252 177.81 205.786C177.416 205.321 177.101 204.762 176.864 204.11C176.635 203.459 176.478 202.725 176.392 201.908V200.705C176.478 199.846 176.639 199.076 176.875 198.396C177.111 197.715 177.423 197.135 177.81 196.655C178.203 196.168 178.68 195.799 179.238 195.549C179.797 195.291 180.441 195.162 181.172 195.162C181.902 195.162 182.55 195.305 183.116 195.592C183.682 195.871 184.158 196.272 184.545 196.795C184.932 197.318 185.222 197.944 185.415 198.675C185.616 199.398 185.716 200.204 185.716 201.092ZM183.718 201.317V201.092C183.718 200.512 183.657 199.967 183.535 199.459C183.413 198.943 183.224 198.492 182.966 198.105C182.715 197.712 182.393 197.404 181.999 197.182C181.605 196.952 181.136 196.838 180.592 196.838C180.09 196.838 179.654 196.924 179.281 197.096C178.916 197.268 178.604 197.5 178.347 197.794C178.089 198.08 177.878 198.41 177.713 198.782C177.555 199.147 177.437 199.527 177.358 199.921V202.703C177.502 203.204 177.702 203.677 177.96 204.121C178.218 204.558 178.562 204.912 178.991 205.185C179.421 205.45 179.962 205.582 180.613 205.582C181.15 205.582 181.612 205.471 181.999 205.249C182.393 205.02 182.715 204.708 182.966 204.314C183.224 203.921 183.413 203.469 183.535 202.961C183.657 202.445 183.718 201.897 183.718 201.317ZM190.41 190.5V207H188.412V190.5H190.41ZM195.76 195.377V207H193.762V195.377H195.76ZM193.611 192.294C193.611 191.972 193.708 191.7 193.901 191.478C194.102 191.256 194.396 191.145 194.782 191.145C195.162 191.145 195.452 191.256 195.652 191.478C195.86 191.7 195.964 191.972 195.964 192.294C195.964 192.602 195.86 192.867 195.652 193.089C195.452 193.304 195.162 193.411 194.782 193.411C194.396 193.411 194.102 193.304 193.901 193.089C193.708 192.867 193.611 192.602 193.611 192.294ZM203.602 205.582C204.074 205.582 204.511 205.485 204.912 205.292C205.313 205.099 205.643 204.834 205.9 204.497C206.158 204.153 206.305 203.763 206.341 203.326H208.231C208.196 204.014 207.963 204.655 207.533 205.249C207.111 205.836 206.556 206.312 205.868 206.678C205.181 207.036 204.425 207.215 203.602 207.215C202.728 207.215 201.965 207.061 201.313 206.753C200.669 206.445 200.132 206.022 199.702 205.485C199.28 204.948 198.961 204.332 198.746 203.638C198.538 202.936 198.435 202.195 198.435 201.414V200.963C198.435 200.182 198.538 199.445 198.746 198.75C198.961 198.048 199.28 197.429 199.702 196.892C200.132 196.354 200.669 195.932 201.313 195.624C201.965 195.316 202.728 195.162 203.602 195.162C204.511 195.162 205.306 195.348 205.986 195.721C206.667 196.086 207.2 196.587 207.587 197.225C207.981 197.855 208.196 198.571 208.231 199.373H206.341C206.305 198.893 206.169 198.46 205.933 198.073C205.703 197.687 205.388 197.379 204.987 197.149C204.593 196.913 204.132 196.795 203.602 196.795C202.993 196.795 202.481 196.917 202.065 197.16C201.657 197.396 201.331 197.719 201.088 198.127C200.852 198.528 200.68 198.976 200.572 199.47C200.472 199.957 200.422 200.454 200.422 200.963V201.414C200.422 201.923 200.472 202.424 200.572 202.918C200.673 203.412 200.841 203.86 201.077 204.261C201.321 204.662 201.646 204.984 202.055 205.228C202.47 205.464 202.986 205.582 203.602 205.582ZM217.319 205.013V199.029C217.319 198.571 217.226 198.174 217.04 197.837C216.861 197.493 216.589 197.228 216.224 197.042C215.858 196.856 215.407 196.763 214.87 196.763C214.369 196.763 213.928 196.849 213.549 197.021C213.176 197.192 212.883 197.418 212.668 197.697C212.46 197.977 212.356 198.277 212.356 198.6H210.369C210.369 198.184 210.477 197.772 210.691 197.364C210.906 196.956 211.214 196.587 211.615 196.258C212.023 195.921 212.51 195.656 213.076 195.463C213.649 195.262 214.286 195.162 214.988 195.162C215.833 195.162 216.578 195.305 217.223 195.592C217.874 195.878 218.383 196.312 218.748 196.892C219.12 197.465 219.307 198.184 219.307 199.051V204.465C219.307 204.852 219.339 205.263 219.403 205.7C219.475 206.137 219.579 206.513 219.715 206.828V207H217.642C217.541 206.771 217.463 206.466 217.405 206.087C217.348 205.7 217.319 205.342 217.319 205.013ZM217.663 199.953L217.685 201.35H215.676C215.11 201.35 214.605 201.396 214.161 201.489C213.717 201.575 213.345 201.708 213.044 201.887C212.743 202.066 212.514 202.291 212.356 202.563C212.199 202.828 212.12 203.14 212.12 203.498C212.12 203.863 212.202 204.196 212.367 204.497C212.532 204.798 212.779 205.038 213.108 205.217C213.445 205.389 213.857 205.475 214.344 205.475C214.952 205.475 215.49 205.346 215.955 205.088C216.421 204.83 216.789 204.515 217.062 204.143C217.341 203.77 217.491 203.409 217.513 203.058L218.361 204.014C218.311 204.314 218.175 204.647 217.953 205.013C217.731 205.378 217.434 205.729 217.062 206.065C216.696 206.395 216.259 206.671 215.751 206.893C215.25 207.107 214.684 207.215 214.054 207.215C213.266 207.215 212.575 207.061 211.98 206.753C211.393 206.445 210.935 206.033 210.605 205.518C210.283 204.995 210.122 204.411 210.122 203.767C210.122 203.144 210.244 202.596 210.487 202.123C210.731 201.643 211.082 201.246 211.54 200.931C211.998 200.608 212.55 200.365 213.194 200.2C213.839 200.035 214.559 199.953 215.354 199.953H217.663ZM227.299 195.377V196.902H221.015V195.377H227.299ZM223.142 192.552H225.129V204.121C225.129 204.515 225.19 204.812 225.312 205.013C225.433 205.213 225.591 205.346 225.784 205.41C225.978 205.475 226.185 205.507 226.407 205.507C226.572 205.507 226.744 205.493 226.923 205.464C227.109 205.428 227.249 205.399 227.342 205.378L227.353 207C227.195 207.05 226.987 207.097 226.729 207.14C226.479 207.19 226.174 207.215 225.816 207.215C225.329 207.215 224.882 207.118 224.474 206.925C224.065 206.731 223.74 206.409 223.496 205.958C223.26 205.5 223.142 204.884 223.142 204.11V192.552ZM231.789 195.377V207H229.791V195.377H231.789ZM229.641 192.294C229.641 191.972 229.737 191.7 229.931 191.478C230.131 191.256 230.425 191.145 230.812 191.145C231.191 191.145 231.481 191.256 231.682 191.478C231.889 191.7 231.993 191.972 231.993 192.294C231.993 192.602 231.889 192.867 231.682 193.089C231.481 193.304 231.191 193.411 230.812 193.411C230.425 193.411 230.131 193.304 229.931 193.089C229.737 192.867 229.641 192.602 229.641 192.294ZM234.453 201.317V201.07C234.453 200.232 234.575 199.455 234.818 198.739C235.062 198.016 235.413 197.389 235.871 196.859C236.329 196.322 236.884 195.907 237.536 195.613C238.188 195.312 238.918 195.162 239.728 195.162C240.544 195.162 241.278 195.312 241.93 195.613C242.589 195.907 243.147 196.322 243.605 196.859C244.071 197.389 244.425 198.016 244.669 198.739C244.912 199.455 245.034 200.232 245.034 201.07V201.317C245.034 202.155 244.912 202.932 244.669 203.648C244.425 204.365 244.071 204.991 243.605 205.528C243.147 206.058 242.592 206.474 241.94 206.774C241.296 207.068 240.565 207.215 239.749 207.215C238.933 207.215 238.199 207.068 237.547 206.774C236.895 206.474 236.337 206.058 235.871 205.528C235.413 204.991 235.062 204.365 234.818 203.648C234.575 202.932 234.453 202.155 234.453 201.317ZM236.44 201.07V201.317C236.44 201.897 236.508 202.445 236.645 202.961C236.781 203.469 236.985 203.921 237.257 204.314C237.536 204.708 237.883 205.02 238.299 205.249C238.714 205.471 239.198 205.582 239.749 205.582C240.293 205.582 240.77 205.471 241.178 205.249C241.593 205.02 241.937 204.708 242.209 204.314C242.481 203.921 242.685 203.469 242.821 202.961C242.965 202.445 243.036 201.897 243.036 201.317V201.07C243.036 200.497 242.965 199.957 242.821 199.448C242.685 198.933 242.478 198.478 242.198 198.084C241.926 197.683 241.582 197.368 241.167 197.139C240.759 196.91 240.279 196.795 239.728 196.795C239.183 196.795 238.703 196.91 238.288 197.139C237.88 197.368 237.536 197.683 237.257 198.084C236.985 198.478 236.781 198.933 236.645 199.448C236.508 199.957 236.44 200.497 236.44 201.07ZM249.514 197.858V207H247.526V195.377H249.406L249.514 197.858ZM249.041 200.748L248.214 200.716C248.221 199.921 248.339 199.187 248.568 198.514C248.798 197.833 249.12 197.243 249.535 196.741C249.951 196.24 250.445 195.853 251.018 195.581C251.598 195.302 252.239 195.162 252.94 195.162C253.513 195.162 254.029 195.241 254.487 195.398C254.946 195.549 255.336 195.792 255.658 196.129C255.988 196.465 256.238 196.902 256.41 197.439C256.582 197.969 256.668 198.618 256.668 199.384V207H254.67V199.362C254.67 198.754 254.58 198.267 254.401 197.901C254.222 197.529 253.961 197.26 253.617 197.096C253.273 196.924 252.851 196.838 252.35 196.838C251.855 196.838 251.404 196.942 250.996 197.149C250.595 197.357 250.248 197.644 249.954 198.009C249.668 198.374 249.442 198.793 249.277 199.266C249.12 199.731 249.041 200.225 249.041 200.748Z" fill="#6F7BF7"/>
<circle cx="303" cy="26" r="11" fill="#4E937A"/>
<circle cx="186" cy="76" r="8" fill="#545FFF"/>
<circle cx="122" cy="49" r="31" fill="#545FFF"/>
<circle cx="199" cy="286" r="31" fill="#F1515E"/>
<circle cx="168" cy="264" r="31" fill="white"/>
</svg>
